<?xml version="1.0" encoding="utf-8"?>
<!-- Generator: Adobe Illustrator 27.0.0, SVG Export Plug-In . SVG Version: 6.00 Build 0)  -->
<svg version="1.1" id="Layer_2_00000094607755610000238770000012289110460205644457_"
	 xmlns="http://www.w3.org/2000/svg" xmlns:xlink="http://www.w3.org/1999/xlink" x="0px" y="0px" viewBox="0 0 472.8 122.2"
	 style="enable-background:new 0 0 472.8 122.2;" xml:space="preserve">
<style type="text/css">
	.st0{fill:#FFFFFF;}
</style>
<g id="Layer_1-2">
	<g>
		<path class="st0" d="M61.5,57.8c-15.9,0-31,0-46.1,0c-3.5,0-7,0.1-10.5,0.4C1.2,58.5,0,56.4,0,53.4c0-3,0.1-6.3,4.2-6.8
			c2.5-0.3,5-0.2,7.5-0.2c15,0,29.9,0,44.9-0.1c1.3,0,2.6-0.2,4.8-0.5c0-3.3,0.1-6.6,0-9.9c-0.1-5,4.1-8.6,8.8-7
			c1.4,0.5,2.8,2.5,3.2,4c0.5,2.2,0.1,4.6,0.1,7c-0.1,5.9,2.6,8,8.2,5.9c1.1-0.4,2.1-2.4,2.1-3.7c0-11.5,0-23-0.4-34.5
			c-0.1-3.9,1.2-6,4.7-7.1c4.7-1.5,6.5-0.2,6.5,4.7c0,11.3-0.1,22.7-0.1,34c0,7,0.1,7.2,6.8,6.6c10.9-1.1,21.8-0.9,32.2-5.7
			c5.5-2.5,11.7-1.8,17.1,3c-4.1,4.3-6.3,8.9-4.4,14.6c0.5,0.3,1.1,0.6,1.6,0.9c1.9-3,4.4-5.8,5.6-9.1c1.6-4.3,1.9-9.1,3.1-13.6
			c0.4-1.7,1.2-3.6,2.5-4.7c1.2-1,3.4-1.8,4.9-1.4c1,0.2,2.1,2.6,2,4c-0.2,5.4-0.8,10.7-1.3,16.1c2-1.6,4-3.8,6.4-5
			c2.7-1.4,5.8-2.6,8.7-2.7c7.8-0.3,9.8,2.3,8.4,10.2c6.1-4.4,6.4-11.1,8.4-17.1c0.7-2.2,2.6-4.5,4.6-5.7c3-1.7,5.4,0,5.3,3.5
			c-0.2,4.8-0.9,9.5-1.3,13.4c3.5-1.4,7.6-3.7,11.9-4.7c4.1-0.9,9-1.3,11.6,3.3c1.9,3.3-0.9,8.3-6.3,11.2c-4.4,2.3-9.1,4.2-13.8,5.8
			c-2.9,1-3.9,2.4-3.9,5.3c-0.2,7.7-0.9,15.3-1,22.9c-0.1,4.9-3.6,4.3-6.6,4.7c-3.4,0.5-4.5-1.6-4.4-4.5c0.2-6.3,0.4-12.7,0.6-19
			c0.1-3.3,0-6.6,0-10.5c-9.2,1.5-18,2.7-26.8,4.4c-1.3,0.2-2.9,2.7-3.1,4.2c-0.6,6.3-1,12.6-0.8,18.9c0.2,5.2-2.6,6.1-6.7,6.3
			c-4.8,0.3-4.4-3.1-4.4-6c0.1-6.3,0.4-12.6,0.6-19c0.1-1.9,0.2-3.8,0.4-6.8c-3.2,2-5.5,3.6-7.9,4.8c-6,3.1-8.8,1.5-9-5.2
			c-0.1-2.1,0-4.2,0-6.4c-4.6,3.6-8.6,7.2-13.1,10.1c-2.4,1.5-5.6,2.1-8.5,2.3c-5.1,0.3-6.9-2.5-4.8-7.3c0.9-2,2.3-3.9,3.9-6.6
			c-5.6,0-10.3-0.3-15.1,0.2c-1.2,0.1-3.1,2.5-3.2,3.8c-0.1,18.1-0.1,36.3,0.1,54.5c0.1,4.5-3.2,8.5-7.7,8c-1.1-0.1-2.5-1.6-2.8-2.7
			c-0.6-2.4-0.9-4.9-0.9-7.4c0.1-15.3,0.2-30.7,0.3-46c0-3,0-5.9,0-8.9c-1.5-0.3-2.3-0.5-3.1-0.5c-8.5-0.4-9.1,0.2-8.1,8.8
			c0.2,2-0.1,4.1,0.5,6c2.3,7.6-3,10.8-8,13.8c-3.2,1.9-3.9-0.4-3.9-3.3C61.5,73.7,61.4,65.7,61.5,57.8L61.5,57.8z M180.9,50.6
			c-7.6-2.1-11.9,1.2-11.6,8C173,56,176.4,53.6,180.9,50.6z M206.6,57.1c4.6-2.8,8.3-4.9,12.9-7.7C212,47,209,49,206.6,57.1z
			 M130.8,50.4c-5.2,0.3-7.4,3.6-9,7.5c0.3,0.3,0.7,0.7,1,1C125.5,56.2,128.1,53.3,130.8,50.4L130.8,50.4z"/>
		<path class="st0" d="M239,49.7c-3.8-4-3.6-6.2,1-8.9c4.2-2.4,8.7-3.6,13.9-0.7c-1.3,0.6-2.7,1-3.8,1.8c-1.6,1.2-2.9,2.7-4.3,4.1
			c1.7,0.7,3.4,1.5,5.1,2.2c0.6,0.2,1.2,0.3,3.4,0.8c-2.5,1.3-3.7,2-5,2.6c-3.3,1.6-7.3,2.8-5.5,7.8c1.2,3.5,4.9,3.9,9.9,0.7
			c4-2.6,7.7-5.8,11.4-8.8c3.2-2.6,6.2-5.6,9.8-7.7c1.7-1,4.9-1.4,6.3-0.5c1.5,0.9,1.8,3.9,2.2,6c0.3,1.3-0.2,2.8-0.3,4.2
			c0.4,0.4,0.8,0.8,1.2,1.2c3.1-2.2,6.1-4.5,9.2-6.7c2.1-1.4,4.2-3.3,6.6-3.8c2.9-0.7,4.9,0.8,5.4,4.3c0.6,5.3,1.7,5.7,6.2,2.6
			c1.5-1,2.9-2.3,3.9-3.8c2.4-3.7,5.5-4.4,9.5-3.2c4.1,1.2,3.3,4.4,3.2,7.3c0,1.2,0.2,2.5,1.5,4.5c3.6-3.8,7.1-7.6,10.8-11.2
			c1.3-1.3,2.9-2.7,4.7-3.3c3.5-1.2,5.8,0.2,6.2,4.1c0.2,1.6,0.5,3.2,1.1,6.1c1.7-2.7,2.4-4.6,3.7-5.8c1.8-1.7,3.9-3.7,6.2-4.3
			c2.8-0.8,4.7,0.6,4.5,4.1c-0.2,3.4,0,6.7,0,10.1c0.6,0.3,1.1,0.7,1.7,1c5.1-2.3,10.2-4.5,15.2-6.9c8.1-3.8,16-8.1,24.2-11.6
			c2.3-1,5.5-0.2,8.2-0.2l1.1,2.4c-2.7,1.8-5.3,3.6-8,5.5l0.7,1.3c5.4,0,10.5,0.5,13.1,6.6c15.6-8.6,32.3-11.5,49.7-11.4
			c-2.4,8.4-2.7,8.5-10.7,8.9c-12.1,0.6-23.8,2.9-34.9,7.8c-3.1,1.4-4.3,3.1-3.8,6.5c2.1,14.8,1.2,29.3-5.9,42.8
			c-1.8,3.5-3.7,7.2-6.2,10.2c-4.9,5.7-11.1,5.1-13.6-1.9c-2.1-5.8-3.2-12.4-2.5-18.4c0.9-7.5,3.5-14.9,6.5-21.9
			c2-4.7,5.6-8.9,9.1-12.8c2-2.2,2.4-3.5,0.7-5.9c-1.9-2.7-3.6-1.5-5.4-0.2c-2,1.5-3.8,3.2-5.8,4.7c-2.1,1.6-4.1,3.4-6.5,4.6
			c-7.4,3.9-10,2.4-11.3-5.8c-0.1-0.6-0.3-1.3-0.6-2.7c-2.1,0.9-4,1.8-5.9,2.6c-2.3,1-4.5,2.3-6.8,3c-7.3,2.4-8.4,1.9-12.5-4.9
			c-1.5,2.1-2.6,4.3-4.3,6c-3.2,3.2-6,2.6-7.5-1.6c-1.1-2.9-1.7-6-3-10.9c-3.3,3.8-5.5,6.8-8.2,9.5c-8,7.9-13,7-17.8-3.9
			c-1.7,1-3.3,2-4.9,3c-9.3,6.2-10.7,6-17.5-4.9c-1.1,2-1.7,3.9-3,5c-2.3,2-4.9,4-7.7,5.2c-7,2.9-8.7,1.8-10.3-5.5
			c-0.2-0.8-0.5-1.5-1-3c-1.9,1.3-3.5,2.4-5,3.5c-8.8,6.1-18.3,9.3-29.2,7.5c-4.4-0.8-8.3-2.3-9.2-7.1c-0.9-5,2.9-7.4,6.6-9.5
			C236,51.1,237.5,50.4,239,49.7L239,49.7z M404.4,109.9c6.5-12.3,10.7-25.2,9.3-39.4C405.9,82.5,401.1,95.3,404.4,109.9z
			 M402.9,50.4c-0.3-0.5-0.6-1-0.9-1.5c-6.7-1.8-11.3,1.8-11.5,9.8C395,55.7,399,53,402.9,50.4z"/>
		<path class="st0" d="M326.6,29.7c-0.4-5.7,2.3-6.9,5.6-6.6c1.8,0.2,4.4,1.4,4.9,2.8c0.9,2.3-4.5,6.8-7.7,6.2
			C328,31.9,327,30,326.6,29.7L326.6,29.7z"/>
	</g>
</g>
</svg>
