<svg width="29" height="30" viewBox="0 0 29 30" fill="none" xmlns="http://www.w3.org/2000/svg">
<path d="M12.4167 27H4.77778C4.04107 27 3.33453 26.7074 2.81359 26.1864C2.29266 25.6655 2 24.959 2 24.2222V7.55558C2 6.81887 2.29266 6.11233 2.81359 5.59139C3.33453 5.07046 4.04107 4.7778 4.77778 4.7778H21.4444C22.1812 4.7778 22.8877 5.07046 23.4086 5.59139C23.9296 6.11233 24.2222 6.81887 24.2222 7.55558V13.8056" stroke="white" stroke-width="2.77778" stroke-linecap="round" stroke-linejoin="round"/>
<path d="M18.6667 2.00003V7.55559" stroke="white" stroke-width="2.77778" stroke-linecap="round" stroke-linejoin="round"/>
<path d="M7.55554 2.00003V7.55559" stroke="white" stroke-width="2.77778" stroke-linecap="round" stroke-linejoin="round"/>
<path d="M2 13.1111H24.2222" stroke="white" stroke-width="2.77778" stroke-linecap="round" stroke-linejoin="round"/>
<path d="M17.2778 22.8334C17.2778 23.9384 17.7168 24.9982 18.4982 25.7796C19.2796 26.561 20.3394 27 21.4444 27C22.5495 27 23.6093 26.561 24.3907 25.7796C25.1721 24.9982 25.6111 23.9384 25.6111 22.8334C25.6111 21.7283 25.1721 20.6685 24.3907 19.8871C23.6093 19.1057 22.5495 18.6667 21.4444 18.6667C20.3394 18.6667 19.2796 19.1057 18.4982 19.8871C17.7168 20.6685 17.2778 21.7283 17.2778 22.8334Z" stroke="white" stroke-width="2.77778" stroke-linecap="round" stroke-linejoin="round"/>
<path d="M24.5 25.8889L27 28.3889" stroke="white" stroke-width="2.77778" stroke-linecap="round" stroke-linejoin="round"/>
</svg>
