<svg width="27" height="27" viewBox="0 0 27 27" fill="none" xmlns="http://www.w3.org/2000/svg">
<path d="M2 2H10.625V10.625H2V2Z" stroke="white" stroke-width="2.875" stroke-linecap="round" stroke-linejoin="round"/>
<path d="M16.375 2H25V10.625H16.375V2Z" stroke="white" stroke-width="2.875" stroke-linecap="round" stroke-linejoin="round"/>
<path d="M2 16.375H10.625V25H2V16.375Z" stroke="white" stroke-width="2.875" stroke-linecap="round" stroke-linejoin="round"/>
<path d="M16.375 20.6875C16.375 21.8312 16.8294 22.9281 17.6381 23.7369C18.4469 24.5456 19.5438 25 20.6875 25C21.8312 25 22.9281 24.5456 23.7369 23.7369C24.5456 22.9281 25 21.8312 25 20.6875C25 19.5438 24.5456 18.4469 23.7369 17.6381C22.9281 16.8294 21.8312 16.375 20.6875 16.375C19.5438 16.375 18.4469 16.8294 17.6381 17.6381C16.8294 18.4469 16.375 19.5438 16.375 20.6875Z" stroke="white" stroke-width="2.875" stroke-linecap="round" stroke-linejoin="round"/>
</svg>
